<svg xmlns="http://www.w3.org/2000/svg" width="120" height="36" viewBox="0 0 120 36">
    <g fill="#2F548A" fill-rule="evenodd">
        <path d="M67.32 26.03h-3.835l-2.944-5.095h-1.695v5.096h-3.568V10.523h6.244c1.494 0 2.743.51 3.791 1.55 1.048 1.042 1.561 2.283 1.561 3.767 0 1.883-1.16 3.611-2.876 4.497l3.322 5.694zm-5.798-12.184h-2.676v3.988h2.676c.982 0 1.784-.864 1.784-1.994s-.802-1.994-1.784-1.994zm14.658 2.15v-1.042h3.345V26.03H76.18V24.99c-.78.908-1.896 1.35-3.323 1.35-1.472 0-2.72-.553-3.769-1.683-1.048-1.13-1.56-2.525-1.56-4.165 0-1.64.512-3.013 1.56-4.142 1.048-1.13 2.297-1.706 3.769-1.706 1.427 0 2.542.443 3.323 1.351zm-4.572 6.468c.49.487 1.137.731 1.918.731.78 0 1.427-.244 1.918-.731.49-.487.736-1.152.736-1.972 0-.82-.246-1.484-.736-1.971-.49-.488-1.138-.731-1.918-.731s-1.427.243-1.918.73c-.49.488-.736 1.153-.736 1.972 0 .82.246 1.485.736 1.972zm18.225-6.469v-5.472h3.345v15.508h-3.345V24.99c-.78.908-1.895 1.35-3.322 1.35-1.472 0-2.72-.553-3.769-1.683-1.048-1.13-1.56-2.525-1.56-4.165 0-1.64.512-3.013 1.56-4.142 1.048-1.13 2.297-1.706 3.769-1.706 1.427 0 2.542.443 3.322 1.351zm-4.571 6.469c.49.487 1.137.731 1.918.731.78 0 1.427-.244 1.917-.731.491-.487.736-1.152.736-1.972 0-.82-.245-1.484-.736-1.971-.49-.488-1.137-.731-1.917-.731s-1.427.243-1.918.73c-.49.488-.736 1.153-.736 1.972 0 .82.245 1.485.736 1.972zm13.208-9.06c-.78.774-2.03.774-2.832 0-.78-.798-.78-2.04 0-2.814.802-.798 2.051-.798 2.832 0 .802.775.802 2.016 0 2.813zm.267 12.627h-3.345V14.954h3.345V26.03zm8.748-11.077v3.19h-2.297v3.921c0 .886.67 1.041 2.297.953v3.013c-2.118.221-3.59.022-4.415-.598-.825-.643-1.227-1.75-1.227-3.368v-3.921h-1.784v-3.19h1.784v-2.105l3.345-.997v3.102h2.297zm6.808 6.779l2.096-6.78h3.568l-3.813 10.745c-1.249 3.479-3.211 4.919-6.356 4.764V27.36c1.539 0 2.275-.487 2.788-1.839l-4.438-10.567h3.68l2.475 6.779z"/>
        <rect width="27.456" height="4.154" rx="2.077"/>
        <rect width="35.819" height="4.154" y="6.369" rx="2.077"/>
        <rect width="35.819" height="4.154" y="12.738" rx="2.077"/>
        <rect width="24.669" height="4.154" y="19.108" rx="2.077"/>
        <rect width="28.85" height="4.154" y="25.477" rx="2.077"/>
        <rect width="33.031" height="4.154" y="31.846" rx="2.077"/>
    </g>
</svg>
